<svg width="83" height="83" viewBox="0 0 83 83" fill="none" xmlns="http://www.w3.org/2000/svg">
<path d="M43.8966 68.1293L41.1957 69.3398C41.0158 69.4228 40.8222 69.4573 40.6354 69.523V39.3664C41.5546 39.1857 42.452 38.9074 43.3122 38.5364L66.3274 28.3239C66.4704 28.8676 66.5528 29.4255 66.5729 29.9874V41.5002C66.5729 42.1881 66.8462 42.8478 67.3326 43.3342C67.819 43.8207 68.4788 44.0939 69.1667 44.0939C69.8546 44.0939 70.5143 43.8207 71.0007 43.3342C71.4872 42.8478 71.7604 42.1881 71.7604 41.5002V29.9874C71.7505 27.8309 71.2012 25.7111 70.1627 23.8212V23.7866C70.1627 23.7555 70.1212 23.7382 70.1073 23.7071C68.7533 21.2462 66.635 19.2929 64.0725 18.1426L43.3225 8.91576C41.6632 8.17206 39.8653 7.7876 38.0469 7.7876C36.2284 7.7876 34.4306 8.17206 32.7712 8.91576L12.0212 18.1461C9.45927 19.2955 7.34101 21.2475 5.98638 23.7071C5.98638 23.7382 5.94488 23.7555 5.93105 23.7866V23.8212C4.88886 25.7102 4.33603 27.83 4.32292 29.9874V53.013C4.32426 55.5201 5.05207 57.973 6.4183 60.0752C7.78453 62.1773 9.73063 63.8385 12.0212 64.8578L32.7712 74.0846C34.4313 74.8299 36.2305 75.2153 38.0503 75.2153C39.8701 75.2153 41.6693 74.8299 43.3295 74.0846L46.0304 72.8742C46.3413 72.7347 46.6217 72.5355 46.8555 72.2877C47.0894 72.0399 47.2721 71.7485 47.3933 71.4301C47.5146 71.1117 47.5719 70.7725 47.562 70.432C47.5522 70.0914 47.4754 69.7561 47.3359 69.4452C47.1965 69.1344 46.9972 68.854 46.7495 68.6202C46.5017 68.3863 46.2103 68.2035 45.8919 68.0823C45.5734 67.9611 45.2343 67.9038 44.8937 67.9136C44.5532 67.9235 44.2179 68.0003 43.907 68.1397L43.8966 68.1293ZM34.8877 13.6502C35.8811 13.2039 36.9578 12.9731 38.0469 12.9731C39.1359 12.9731 40.2126 13.2039 41.206 13.6502L61.956 22.8805C62.5222 23.1489 63.054 23.4844 63.54 23.88L54.1022 28.0749L29.005 16.2543L34.8877 13.6502ZM22.742 19.0521L47.8322 30.8589L41.2233 33.795C40.2222 34.2305 39.1421 34.4553 38.0503 34.4553C36.9585 34.4553 35.8784 34.2305 34.8773 33.795L12.5434 23.8834C13.0293 23.4879 13.5611 23.1523 14.1273 22.884L22.742 19.0521ZM14.1273 60.1164C12.7535 59.5053 11.5862 58.5092 10.7668 57.2484C9.94743 55.9877 9.51102 54.5166 9.51042 53.013V29.9874C9.53056 29.4255 9.61291 28.8676 9.75596 28.3239L32.785 38.5502C33.64 38.9217 34.5329 39.1988 35.4479 39.3768V69.5334C35.2577 69.4677 35.0606 69.4297 34.8773 69.3467L14.1273 60.1164Z" fill="white"/>
<path d="M74.041 52.3086C73.6483 51.3993 73.0821 50.5754 72.374 49.8828C71.6654 49.1882 70.83 48.6362 69.9131 48.2569C68.9623 47.8619 67.9426 47.6598 66.9131 47.6621C65.4688 47.6621 64.0596 48.0576 62.835 48.8047C62.542 48.9834 62.2637 49.1797 62 49.3936C61.7363 49.1797 61.458 48.9834 61.165 48.8047C59.9404 48.0576 58.5312 47.6621 57.0869 47.6621C56.0469 47.6621 55.0391 47.8613 54.0869 48.2569C53.167 48.6377 52.3379 49.1856 51.626 49.8828C50.917 50.5746 50.3506 51.3988 49.959 52.3086C49.5518 53.2549 49.3438 54.2598 49.3438 55.294C49.3438 56.2696 49.543 57.2862 49.9385 58.3203C50.2695 59.1846 50.7441 60.0811 51.3506 60.9863C52.3115 62.419 53.6328 63.9131 55.2734 65.4278C57.9922 67.9385 60.6846 69.6729 60.7988 69.7432L61.4932 70.1885C61.8008 70.3848 62.1963 70.3848 62.5039 70.1885L63.1982 69.7432C63.3125 69.6699 66.002 67.9385 68.7236 65.4278C70.3643 63.9131 71.6855 62.419 72.6465 60.9863C73.2529 60.0811 73.7305 59.1846 74.0586 58.3203C74.4541 57.2862 74.6533 56.2696 74.6533 55.294C74.6562 54.2598 74.4482 53.2549 74.041 52.3086Z" fill="#BB0086"/>
</svg>
